<?xml version="1.0" encoding="utf-8"?>
<!-- Generator: Adobe Illustrator 21.0.0, SVG Export Plug-In . SVG Version: 6.00 Build 0)  -->
<!DOCTYPE svg PUBLIC "-//W3C//DTD SVG 1.1//EN" "http://www.w3.org/Graphics/SVG/1.1/DTD/svg11.dtd">
<svg version="1.1" id="Layer_1" xmlns="http://www.w3.org/2000/svg" xmlns:xlink="http://www.w3.org/1999/xlink" x="0px" y="0px"
	 viewBox="0 0 3753 1000" style="enable-background:new 0 0 3753 1000;" xml:space="preserve">
<g>
	<g>
		<path d="M1402.9,561c0,17.3-2.9,32.7-8.6,46.1c-5.7,13.5-13.7,24.8-23.9,34.1c-10.3,9.2-22.6,16.2-36.8,21.1
			c-14.3,4.8-29.4,7.2-45.4,7.2h-160.1V301.6h152.5c24.8,0,46.1,4.4,63.8,13.2c17.6,8.8,30.9,21.3,40,37.4c9,16,13.5,34.7,13.5,55.9
			c0,17.8-4.4,32.8-13.1,45.1c-8.7,12.2-17.8,21.4-27.2,27.7c12.1,7.3,22.7,16.8,31.8,28.6C1398.3,521.3,1402.9,538.5,1402.9,561z
			 M1307.2,412.7c0-8.2-2.6-15.2-7.7-21.1c-5.1-5.8-13.4-8.8-24.8-8.8h-56.2v59.8h56.2c11.1,0,19.3-2.9,24.6-8.8
			C1304.6,427.9,1307.2,420.9,1307.2,412.7z M1312.5,555.8c0-8.9-2.6-16.4-7.8-22.6c-5.2-6.2-13.6-9.3-25.2-9.3h-61.1v64.3h61.1
			c11.4,0,19.8-3.2,25.1-9.5S1312.5,564.7,1312.5,555.8z"/>
		<path d="M1723.2,669.4h-250V301.6h250V382h-159.7v61.6H1700v80.5h-136.5v64.9h159.7V669.4z"/>
		<path d="M2051.7,556.9c0,24.1-6.4,44.8-19,62.3c-12.7,17.5-29.9,30.7-51.5,39.7c-21.6,9-45.5,13.5-71.5,13.5
			c-30.5,0-56.9-3.6-79.5-10.9c-22.5-7.2-42.5-19.7-60-37.6l58-58.1c9.1,9.1,21.1,15.7,35.8,19.8c14.8,4.1,30.2,6.2,46.2,6.2
			c35.1,0,52.7-11,52.7-33.1c0-9.4-2.4-16.7-7.3-21.7c-4.9-5.1-12.9-8.3-24.2-9.9l-44.4-6.3c-32.7-4.5-57.3-15.4-73.9-32.5
			c-16.8-17.3-25.3-42-25.3-73.9c0-22.4,5.4-42.3,16.3-59.9c10.9-17.6,26.4-31.3,46.7-41.3c20.3-9.9,44-14.9,71.3-14.9
			c27.1,0,50.8,3.5,71,10.5s38,18.1,53.1,33.4l-56.8,56.8c-9.4-9.4-19.6-15.4-30.5-17.9c-10.9-2.5-24.1-3.8-39.4-3.8
			c-14.5,0-25.5,3.5-33,10.3c-7.6,6.9-11.4,14.8-11.4,23.7c0,6.6,2.4,12.3,7.3,17.2c5.7,5.7,14.1,9.3,25.2,10.9l44.4,6
			c32.3,4.7,56.4,14.9,72.4,30.6c9.6,9.2,16.5,20.4,20.8,33.6C2049.5,523.1,2051.7,538.7,2051.7,556.9z"/>
		<path d="M2392.8,419.9c0,20.7-4.9,40.1-14.7,58c-9.9,18-24.2,32.6-43,43.7c-18.8,11.1-41.5,16.7-67.8,16.7h-55.3v131.2h-90.4
			V301.6h145.7c26.4,0,49,5.5,67.8,16.5c18.9,11,33.2,25.5,43,43.5C2387.9,379.6,2392.8,399,2392.8,419.9z M2302.5,420
			c0-6.6-1.6-12.7-4.7-18.4c-3.1-5.7-7.7-10.2-13.6-13.7c-6-3.4-13-5.1-20.9-5.1h-51.3V457h51.3c8,0,14.9-1.7,20.9-5.1
			c5.9-3.5,10.5-8,13.6-13.6C2300.9,432.6,2302.5,426.5,2302.5,420z"/>
		<path d="M2719.7,485.5v12.4c0,20.5-0.7,38.2-2.2,53c-1.4,14.8-4.8,29.1-10.2,42.9c-5.4,13.8-13.6,26.2-24.7,37.4
			c-13.6,13.6-28.6,23.9-45,30.9c-16.4,7-35.7,10.5-57.8,10.5c-15,0-28.4-1.5-40.5-4.7c-12-3.1-23.1-7.7-33.3-13.8
			c-10.2-6-19.8-13.7-28.9-22.9c-16.1-16.2-26.4-34.5-30.7-55c-4.4-20.5-6.6-46.6-6.6-78.2v-12.4v-12.4c0-31.6,2.2-57.7,6.6-78.4
			c4.4-20.6,14.6-39,30.7-55.1c13.9-13.9,29-24.3,45.2-31s35.3-10.1,57.4-10.1c22.2,0,41.4,3.4,57.7,10.2
			c16.3,6.8,31.3,17.1,45.1,30.9c11.1,11.1,19.3,23.6,24.7,37.5c5.4,13.9,8.8,28.2,10.2,43c1.5,14.8,2.2,32.5,2.2,53V485.5z
			 M2629.4,485.5c0-31.3-1-52.6-3.1-64.1c-2.1-11.4-5.5-20.2-10.2-26.2c-3.4-4.7-8.3-8.6-14.8-11.7c-6.5-3-13.7-4.5-21.6-4.5
			c-7.7,0-14.7,1.5-20.9,4.4c-6.2,2.9-11.3,6.8-15.2,11.7c-3,3.8-5.5,8.6-7.4,14.2c-1.9,5.7-3.4,14.3-4.4,26
			c-1,11.7-1.5,28.4-1.5,50.1c0,21.5,0.5,38.1,1.5,49.8c1,11.7,2.5,20.3,4.4,25.9c1.9,5.5,4.4,10.2,7.4,14.1
			c8.6,11.1,20.6,16.7,36.1,16.7c15.6,0,27.7-5.6,36.4-16.7c4.7-6.6,8.1-15.3,10.2-26.4C2628.4,537.9,2629.4,516.8,2629.4,485.5z"/>
		<path d="M3099.6,669.4h-105.2l-84.8-150.9l-31,35.6v115.3h-89.8V301.6h89.8v130.2l106.5-130.2h110.5l-125.7,148.8L3099.6,669.4z"
			/>
		<path d="M3396.3,669.4h-250V301.6h250V382h-159.7v61.6h136.5v80.5h-136.5v64.9h159.7V669.4z"/>
		<path d="M3752.7,669.4h-79l-117.8-185v185h-90.4V301.6h79l117.8,185v-185h90.4V669.4z"/>
	</g>
	<path d="M853.9,146.3C659-48.7,341.9-48.7,146.8,146l0,0.1l0,0c-0.1,0-0.1,0.1-0.1,0.1l-6.5,6.5v0.2
		C49.9,246.5,0.3,369.3,0.3,499.8c0,133.6,52,259.2,146.5,353.7c94.4,94.5,220,146.5,353.7,146.5l0,0c133.5,0,259-51.9,353.4-146.3
		c0.1,0,0.1,0,0.1,0s0-0.1,0.1-0.1c0,0,0.1,0,0.1-0.1C1048.9,658.5,1048.9,341.3,853.9,146.3 M822.9,177.3
		c177.9,177.9,177.9,467.3,0.1,645.2C673,972.4,429.2,972.4,279.2,822.4c-31.3-31.4-56.6-67.2-75.1-106c-0.3-0.6-0.7-1.2-0.9-1.8
		c-1.8-3.8-3.5-7.6-5.1-11.5c-0.9-2.2-1.9-4.3-2.7-6.4c-1.1-2.6-2-5.2-3-7.8c-1.3-3.4-2.6-6.8-3.9-10.3c-0.5-1.5-1-3.1-1.5-4.7
		c-1.5-4.5-3-9-4.4-13.5c-0.2-0.7-0.3-1.4-0.6-2.1c-1.5-5.3-3-10.7-4.3-16c0-0.2-0.1-0.3-0.1-0.5c-24.7-101.8-7.4-211.8,52-302.2
		c0.1-0.3,0.3-0.5,0.4-0.7c3-4.4,6-8.8,9.2-13.2c0.7-0.9,1.3-1.9,2-2.8c2.7-3.7,5.6-7.3,8.5-11c1.2-1.4,2.3-2.9,3.5-4.4
		c2.7-3.3,5.6-6.6,8.5-9.9c1.4-1.6,2.7-3.2,4.2-4.8c4.3-4.8,8.7-9.4,13.4-14c2.7-2.8,5.6-5.5,8.5-8.1c0.1-0.1,0.1-0.2,0.2-0.2
		c2.4-2.2,4.9-4.3,7.5-6.4c0.6-0.5,1.1-1,1.7-1.5c2.2-1.7,4.4-3.4,6.5-5.1c1-0.8,2-1.6,3-2.4c1.8-1.3,3.6-2.6,5.4-3.8
		c1.5-1.1,3-2.1,4.5-3.1c1.4-1,2.8-1.8,4.3-2.7c2-1.3,4-2.5,6-3.7c1-0.6,2-1.1,3-1.7c2.5-1.4,5-2.8,7.5-4.2c0.6-0.3,1.2-0.6,1.8-0.9
		c3-1.5,6-3,9-4.4c0.2-0.1,0.5-0.2,0.7-0.3c14.1-6.5,28.6-11.5,43.4-15.1c0.4-0.1,0.9-0.2,1.3-0.3c3.2-0.8,6.5-1.5,9.8-2.1
		c1.4-0.3,2.9-0.5,4.3-0.8c2.3-0.4,4.5-0.8,6.8-1.1c3.5-0.5,7.1-1,10.7-1.3c0.2,0,0.4,0,0.6-0.1c7.9-0.8,15.9-1.2,23.9-1.2
		c64.4,0,124.9,25.1,170.4,70.6c32,32,53.1,70.8,63.3,111.7c-8.8-14.7-19.6-28.6-32.2-41.3c-40.2-40.3-93.8-62.5-150.8-62.5
		c-57,0-110.5,22.2-150.8,62.5v0l0,0c-111.1,111.1-111.1,291.9,0,403c53.8,53.8,125.4,83.4,201.5,83.4c76.2,0,147.7-29.6,201.5-83.4
		c5.2-5.2,10.3-10.6,15.2-16c151.8-168,146.8-428.2-15.1-590.1c-28.2-28.2-59.5-51.5-92.7-70.2c-1.7-1-3.4-1.9-5.1-2.9
		c-3.3-1.8-6.6-3.6-10-5.3c-0.8-0.4-1.6-0.9-2.4-1.3C708.5,88,770.5,124.9,822.9,177.3 M380.7,380.1L380.7,380.1
		c32-31.9,74.4-49.5,119.6-49.5c45.2,0,87.7,17.6,119.7,49.6c66,66,66,173.5,0,239.5c-31.9,31.9-74.4,49.4-119.5,49.4
		c-45.3,0-87.8-17.6-119.8-49.6C314.7,553.5,314.6,446.1,380.7,380.1 M44.2,499.8c0-121.6,47.3-235.9,133.1-322.1l0.4-0.4
		c3.6-3.6,7.3-7.1,11.1-10.6c0.9-0.9,1.9-1.9,2.9-2.7c3-2.8,6.3-5.5,9.4-8.1c1.8-1.5,3.5-3.1,5.3-4.5c2.5-2,5.1-3.9,7.6-5.9
		c2.6-2,5.2-4.1,7.8-6c1.8-1.3,3.6-2.5,5.4-3.8c3.5-2.5,7-5,10.6-7.3c1-0.7,2-1.3,3-1.9c4.4-2.9,8.9-5.7,13.5-8.4
		c0.1,0,0.3-0.2,0.4-0.2c65.3-38.4,139.7-55.9,213.2-52.5h0.4c5.3,0.3,10.5,0.7,15.7,1.1c1,0.1,1.9,0.1,2.8,0.2
		c5.7,0.5,11.3,1.2,17,2c0.5,0.1,0.9,0.1,1.4,0.2c5.9,0.9,11.7,1.9,17.5,3c0.2,0.1,0.5,0.1,0.7,0.1c5.7,1.1,11.4,2.3,17,3.7
		c0.4,0.1,0.8,0.2,1.2,0.3c5.2,1.3,10.3,2.7,15.5,4.1c0.9,0.3,1.8,0.5,2.7,0.8c4.4,1.3,8.8,2.7,13.2,4.2c1.6,0.5,3.3,1.1,4.9,1.6
		c3.4,1.2,6.7,2.5,10.1,3.8c2.6,1,5.3,2,7.9,3.1c2.1,0.9,4.2,1.8,6.3,2.7c3.9,1.7,7.7,3.3,11.5,5.1c0.6,0.3,1.2,0.6,1.9,0.9
		c38.8,18.6,74.7,43.8,106,75.2c145.2,145.2,149.8,378.7,13.7,529.5c-4.3,4.8-8.8,9.5-13.5,14.2c-45.5,45.5-106.1,70.6-170.5,70.6
		c-64.4,0-124.9-25.1-170.5-70.6c-32-32-53.1-70.8-63.3-111.7c8.8,14.7,19.5,28.6,32.2,41.3c40.2,40.3,93.8,62.5,150.8,62.5
		c56.9,0,110.3-22.1,150.6-62.3c0,0,0-0.1,0.1-0.1c0,0,0,0,0.1-0.1l0,0c0-0.1,0.1-0.1,0.2-0.2c0.7-0.7,1.4-1.4,2.1-2.1
		c1.1-1.1,2.1-2.2,3.1-3.3c2.1-2.2,4.1-4.3,6.1-6.6c1-1.1,1.9-2.3,2.9-3.4c2.3-2.6,4.5-5.2,6.6-7.8c0.6-0.8,1.2-1.6,1.8-2.4
		c2.4-3,4.7-6.1,7-9.2c0.3-0.4,0.6-0.8,0.8-1.2c79.3-111.2,69.1-267.1-30.6-366.8c-34-34-74.4-57.5-117.4-70.7
		c-0.5-0.1-1-0.3-1.4-0.4c-3.7-1.1-7.3-2.1-11-3c-0.9-0.2-1.7-0.5-2.6-0.7c-3.6-0.9-7.3-1.7-11-2.4c-0.8-0.2-1.7-0.4-2.6-0.6
		c-4.2-0.8-8.4-1.5-12.6-2.1c-0.3-0.1-0.6-0.1-1-0.2c-18.7-2.8-37.6-3.7-56.4-2.7c-0.1,0-0.2,0-0.3,0c-4.4,0.2-8.8,0.6-13.1,1
		c-3.5,0.3-6.9,0.8-10.4,1.2c-1,0.2-2,0.2-3,0.4c-32.1,4.6-62.9,14.6-91.3,29.5c0,0-0.1,0.1-0.2,0.1c-3.6,1.9-7.1,3.9-10.6,5.9
		c-0.7,0.4-1.3,0.7-1.9,1.1c-2.9,1.7-5.8,3.5-8.6,5.3c-1.2,0.8-2.4,1.5-3.6,2.3c-2.2,1.5-4.4,3.1-6.6,4.6c-1.7,1.2-3.5,2.4-5.2,3.7
		c-1.6,1.2-3.1,2.5-4.7,3.7c-2.2,1.7-4.4,3.4-6.6,5.2c-1,0.8-2,1.7-2.9,2.5c-2.7,2.3-5.3,4.5-8,6.9c-0.3,0.3-0.7,0.7-1,1
		c-3.1,2.8-6.2,5.7-9.1,8.7c-5.2,5.2-10.2,10.5-15.1,15.8c-1.4,1.6-2.7,3.2-4.1,4.8c-3.4,3.8-6.8,7.7-10,11.7
		c-1.1,1.4-2.2,2.8-3.3,4.3c-3.4,4.2-6.8,8.5-10,12.9c-0.6,0.8-1.2,1.7-1.7,2.5c-3.7,5.1-7.3,10.2-10.7,15.4c0,0,0,0.1,0,0.1
		c-45.8,69.3-70.5,150.6-70.5,235.6c0,48.6,8.1,96,23.6,140.6c0.2,0.5,0.3,1.1,0.5,1.6c1.8,5,3.7,9.9,5.6,14.8
		c0.7,1.8,1.3,3.5,2,5.3c1.5,3.5,3,7,4.5,10.4c1.4,3.2,2.7,6.3,4.2,9.5c0.9,1.8,1.8,3.6,2.7,5.4c20.3,41.8,47.6,80.9,82.3,115.6
		c33.7,33.7,71.7,60.5,112.2,80.6c-68.1-21.9-130.5-59.8-182.5-111.8C91.6,736.3,44.2,621.7,44.2,499.8 M410.8,524.3
		c-13.4,0-24.4-10.9-24.4-24.4c0-13.5,10.9-24.4,24.4-24.4h65.2v-65.1c0-13.5,10.9-24.4,24.4-24.4c13.5,0,24.4,10.9,24.4,24.4v65.1
		h65.2c13.5,0,24.4,10.9,24.4,24.4c0,13.5-10.9,24.4-24.4,24.4h-65.2v65.2c0,13.5-10.9,24.4-24.4,24.4c-13.5,0-24.4-10.9-24.4-24.4
		v-65.2H410.8"/>
</g>
</svg>
