<?xml version="1.0" encoding="utf-8"?>
<!-- Generator: Adobe Illustrator 21.0.0, SVG Export Plug-In . SVG Version: 6.00 Build 0)  -->
<!DOCTYPE svg PUBLIC "-//W3C//DTD SVG 1.1//EN" "http://www.w3.org/Graphics/SVG/1.1/DTD/svg11.dtd">
<svg version="1.1" id="Livello_1" xmlns="http://www.w3.org/2000/svg" xmlns:xlink="http://www.w3.org/1999/xlink" x="0px" y="0px"
	 viewBox="0 0 4676 1000" style="enable-background:new 0 0 4676 1000;" xml:space="preserve">
<g>
	<rect x="2347.3" y="5.3" width="8" height="988.9"/>
	<path d="M1898.2,5.3l298.5,642.4h-182.6l-60-142.6h-298.5L1593,647.7H1417L1718.2,5.3H1898.2z M1908.8,399.8l-100-235.9h-2.7
		l-104,235.9H1908.8z"/>
	<path d="M1133.2,537.1c16,0,33.3-1.3,49.3-4c14.7-2.7,28-6.7,41.3-13.3c12-5.3,21.3-14.7,28-25.3c8-12,10.7-26.7,10.7-41.3
		c0-33.3-12-57.3-34.7-70.6c-28-14.7-60-22.7-92-21.3H945.2v175.9H1133.2z M1145.1,4c34.7,0,69.3,2.7,104,8c28,4,54.6,13.3,80,26.7
		c21.3,12,40,28,52,49.3c13.3,22.7,20,49.3,18.7,76c1.3,29.3-8,58.6-26.7,81.3c-22.7,24-49.3,42.6-81.3,53.3
		c49.3,12,85.3,32,109.3,60c24,29.3,37.3,65.3,36,102.6c1.3,29.3-8,58.6-24,84c-16,24-37.3,44-62.6,58.6c-28,16-58.6,26.7-90.6,33.3
		c-34.7,6.7-69.3,10.7-104,10.7H769.3V4H1145.1z M1123.8,263.9c26.7,1.3,53.3-5.3,77.3-17.3c20-12,32-34.7,30.7-58.6
		c0-13.3-2.7-25.3-10.7-37.3c-6.7-9.3-16-17.3-26.7-22.7c-12-5.3-25.3-9.3-38.7-10.7c-14.7-2.7-30.7-2.7-45.3-2.7H945.2v150.6h178.6
		V263.9z"/>
	<path d="M593.4,597.1c-60,42.6-142.6,64-249.2,64c-108,0-190.6-21.3-250.6-62.6c-60-41.3-89.3-106.6-89.3-194.6V4h175.9v399.8
		c0,17.3,1.3,34.7,5.3,50.6c4,17.3,12,32,24,44c13.3,14.7,30.7,25.3,49.3,32c28,9.3,56,13.3,85.3,12c62.6,0,105.3-10.7,129.3-33.3
		c24-22.7,36-57.3,36-105.3V4h175.9v399.8C684,490.5,654.7,554.4,593.4,597.1"/>
	<path d="M4319.9,994.3h-37.3v-116l-110.6-166.6h45.3l85.3,134.6l84-134.6h42.6l-108,167.9L4319.9,994.3z M3905.4,711.7l89.3,237.2
		l89.3-237.2h52v282.6h-36V759.7h-1.3l-88,234.6h-32l-88-234.6h-1.3v234.6h-36V711.7H3905.4z M3802.7,711.7v32h-157.3v90.6h146.6v32
		h-146.6v97.3h158.6v32h-195.9V711.7H3802.7z M3421.6,711.7c44,0,77.3,10.7,100,33.3c22.7,22.7,34.7,56,34.7,101.3
		c0,21.3-2.7,42.6-8,64c-4,17.3-13.3,33.3-24,46.6c-12,13.3-26.7,22.7-42.6,29.3c-20,6.7-40,10.7-61.3,9.3h-97.3V711.7H3421.6z
		 M3424.2,963.6c5.3,0,10.7,0,16-1.3c6.7-1.3,13.3-2.7,20-5.3c8-2.7,14.7-6.7,21.3-10.7c8-5.3,13.3-12,18.7-20
		c5.3-9.3,10.7-20,13.3-30.7c4-14.7,5.3-29.3,5.3-44c0-14.7-1.3-30.7-5.3-45.3c-2.7-12-8-24-16-34.7c-8-9.3-17.3-17.3-29.3-21.3
		c-14.7-5.3-29.3-8-44-8h-64v219.9h64V963.6z M3181.7,711.7l110.6,282.6H3251l-30.7-85.3h-120l-30.7,85.3h-38.7l110.6-282.6H3181.7z
		 M3208.3,878.3l-46.6-131.9h-1.3l-48,131.9H3208.3z M2944.4,751.7c-14.7-10.7-33.3-16-52-14.7c-14.7,0-29.3,2.7-44,9.3
		c-12,6.7-21.3,14.7-29.3,25.3c-8,10.7-13.3,24-17.3,37.3c-4,13.3-5.3,28-5.3,42.6c0,16,1.3,30.7,5.3,45.3
		c2.7,13.3,9.3,26.7,17.3,37.3s18.7,20,29.3,25.3c13.3,6.7,28,9.3,44,9.3c10.7,0,22.7-1.3,33.3-6.7c9.3-4,17.3-9.3,25.3-17.3
		c6.7-8,13.3-16,16-25.3c4-10.7,6.7-21.3,6.7-32h37.3c-1.3,32-14.7,61.3-37.3,82.6c-24,21.3-54.6,32-85.3,29.3c-20,0-40-4-57.3-10.7
		c-16-6.7-29.3-17.3-41.3-30.7c-10.7-13.3-20-29.3-24-46.6c-5.3-18.7-8-38.7-8-57.3c0-20,2.7-38.7,8-58.6
		c5.3-17.3,14.7-33.3,25.3-48c12-13.3,25.3-24,41.3-32c18.7-8,37.3-12,57.3-12c14.7,0,28,1.3,41.3,5.3c13.3,4,25.3,9.3,36,17.3
		c10.7,8,18.7,17.3,25.3,29.3c6.7,12,12,25.3,13.3,40h-33.3C2969.7,778.4,2959.1,762.4,2944.4,751.7 M2631.2,711.7l110.6,282.6
		h-41.3l-30.7-85.3h-120l-32,85.3h-38.7l110.6-282.6H2631.2z M2657.9,877L2611.2,745h-1.3l-48,131.9H2657.9z"/>
	<path d="M3933.4,642.4H3896v-116l-109.3-166.6h45.3l85.3,134.6l82.6-134.6h42.6l-109.3,167.9V642.4z M3554.8,391.8v-32h226.6v32
		h-94.6v250.6h-37.3V391.8H3554.8z M3492.2,622.4c-22.7,18.7-52,29.3-82.6,26.7c-30.7,1.3-61.3-8-85.3-25.3
		c-20-17.3-30.7-45.3-30.7-82.6V359.9h37.3v181.3c-1.3,21.3,5.3,42.6,20,57.3c16,14.7,37.3,21.3,58.6,20c20,1.3,40-5.3,54.6-20
		c13.3-16,20-37.3,18.7-57.3V359.9h37.3v181.3C3520.2,577.1,3510.9,605.1,3492.2,622.4 M3152.3,359.9L3263,642.4h-41.3l-30.7-85.3
		h-120l-32,85.3h-38.7L3111,359.9L3152.3,359.9z M3179,526.5l-46.6-131.9h-1.3l-48,131.9H3179z M2983.1,359.9v32h-157.3v90.6h146.6
		v32h-146.6v97.3h158.6v32h-195.9V359.9H2983.1z M2644.5,610.4c14.7,1.3,28-4,38.7-13.3c9.3-9.3,14.7-24,14.7-37.3
		c0-8-1.3-16-5.3-22.7c-2.7-5.3-8-10.7-13.3-14.7c-6.7-4-12-6.7-20-8c-8-1.3-14.7-2.7-22.7-2.7h-85.3v97.3L2644.5,610.4z
		 M2615.2,359.9h20c6.7,0,13.3,0,21.3,1.3c6.7,0,13.3,1.3,18.7,2.7c5.3,1.3,10.7,2.7,14.7,5.3c9.3,5.3,17.3,13.3,24,22.7
		c6.7,10.7,10.7,22.7,9.3,36c0,13.3-4,28-10.7,38.7c-8,10.7-18.7,20-30.7,24v1.3c16,2.7,30.7,10.7,40,24c9.3,13.3,13.3,28,13.3,44
		c0,10.7-1.3,20-5.3,30.7c-4,9.3-9.3,18.7-16,25.3c-8,8-16,14.7-26.7,18.7c-12,5.3-24,6.7-37.3,6.7h-135.9V359.9H2615.2z
		 M2625.9,481.1c16,1.3,32-2.7,46.6-10.7c9.3-8,14.7-21.3,14.7-33.3c0-8-1.3-16-5.3-24c-2.7-5.3-8-10.7-13.3-13.3
		c-5.3-2.7-12-5.3-18.7-6.7c-8-1.3-16-1.3-22.7-1.3h-74.6v90.6L2625.9,481.1z"/>
	<path d="M4526.5,8v250.6h149.3v32h-187.9V8H4526.5z M4346.5,8l110.6,282.6h-41.3l-30.7-85.3h-120l-32,85.3h-38.7L4305.2,8H4346.5z
		 M4373.2,174.6l-46.6-131.9h-1.3l-48,131.9H4373.2z M4109.3,46.6c-14.7-9.3-30.7-14.7-48-13.3c-8,0-16,1.3-24,2.7
		c-6.7,1.3-14.7,4-20,8c-5.3,4-10.7,9.3-14.7,14.7c-4,6.7-5.3,14.7-5.3,22.7s2.7,16,8,21.3c5.3,5.3,13.3,10.7,20,13.3
		c9.3,4,18.7,6.7,29.3,8c10.7,2.7,21.3,4,33.3,6.7s22.7,5.3,33.3,9.3s20,8,29.3,14.7c8,6.7,16,13.3,20,22.7
		c10.7,24,10.7,50.6-2.7,73.3c-6.7,10.7-16,20-26.7,26.7c-10.7,6.7-22.7,12-36,14.7c-13.3,2.7-25.3,4-38.7,4
		c-14.7,0-30.7-1.3-45.3-5.3c-13.3-4-26.7-9.3-37.3-17.3c-10.7-8-20-18.7-25.3-30.7c-6.7-13.3-9.3-29.3-9.3-44h36
		c0,10.7,2.7,21.3,6.7,30.7c4,8,10.7,14.7,18.7,20s17.3,9.3,26.7,12c10.7,2.7,20,4,30.7,4c8,0,17.3-1.3,25.3-2.7c8-1.3,16-4,22.7-8
		s12-9.3,16-16c4-8,6.7-16,6.7-25.3c0-8-2.7-17.3-8-24c-5.3-6.7-13.3-12-20-14.7c-9.3-4-18.7-6.7-29.3-9.3l-33.3-6.7
		c-10.7-2.7-22.7-5.3-33.3-9.3c-10.7-2.7-20-8-29.3-13.3c-18.7-10.7-29.3-32-28-53.3c-1.3-25.3,10.7-49.3,32-62.6
		c10.7-6.7,21.3-12,33.3-14.7S4048,0,4060,0c13.3,0,26.7,1.3,40,5.3c12,2.7,22.7,9.3,33.3,16c9.3,8,17.3,17.3,22.7,28
		c5.3,12,9.3,26.7,9.3,40h-36C4130.6,73.3,4122.6,57.3,4109.3,46.6 M3833.4,135.9c8-1.3,14.7-4,21.3-8c5.3-4,10.7-9.3,14.7-16
		c4-8,5.3-16,5.3-25.3c0-13.3-4-25.3-12-34.7c-10.7-9.3-24-14.7-38.7-13.3h-93.3v98.6h78.6C3816.1,138.6,3825.4,137.3,3833.4,135.9
		 M3825.4,8c22.7-1.3,45.3,5.3,62.6,20c16,13.3,24,33.3,22.7,54.6c0,16-4,32-12,45.3s-21.3,22.7-37.3,26.7l0,0c6.7,1.3,13.3,4,20,8
		c5.3,4,9.3,8,12,13.3c2.7,5.3,5.3,10.7,6.7,17.3c1.3,6.7,2.7,13.3,2.7,20c0,6.7,1.3,13.3,1.3,21.3c0,6.7,1.3,14.7,1.3,21.3
		c1.3,6.7,2.7,13.3,4,20c1.3,5.3,5.3,12,9.3,16h-40c-2.7-4-5.3-8-5.3-12c-1.3-5.3-1.3-10.7-1.3-17.3c0-6.7,0-13.3-1.3-20
		c0-6.7-1.3-14.7-2.7-21.3c-1.3-6.7-2.7-13.3-4-20c-1.3-5.3-4-12-8-16c-4-5.3-8-8-13.3-10.7c-6.7-2.7-14.7-4-22.7-4h-92v121.3h-36V8
		H3825.4z M3641.5,8v32h-158.6v90.6h146.6v32h-146.6v97.3h158.6v32h-195.9V8H3641.5z M3268.3,290.5L3168.3,8h40l81.3,245.2h1.3
		L3372.2,8h40l-101.3,282.6H3268.3z M3132.3,290.5H3095V8h37.3V290.5z M2843.1,8l149.3,229.2h1.3V8h36v282.6h-41.3L2840.5,64h-1.3
		v226.6h-36V8H2843.1z M2709.9,270.6c-22.7,18.7-52,29.3-82.6,26.7c-30.7,1.3-61.3-8-85.3-26.7c-20-17.3-30.7-45.3-30.7-82.6V8h37.3
		v181.3c-1.3,21.3,5.3,42.6,20,57.3c16,14.7,37.3,21.3,58.6,20c20,1.3,40-5.3,54.6-20c13.3-16,20-37.3,18.7-57.3V8h37.3v181.3
		C2737.8,225.2,2728.5,251.9,2709.9,270.6"/>
	<g>
		<path d="M1210.5,918.3c-2.7-1.3-5.3-2.7-9.3-2.7l-10.7-2.7c-4-1.3-6.7-1.3-10.7-2.7c-2.7-1.3-6.7-2.7-9.3-5.3
			c-2.9-2.2-5.3-5.2-7-8.7c0.3,3.4,0.3,6.7,0.3,10.1c0,5.2-0.9,10.1-1.8,14.7h13.8c6.7,4,8,8,9.3,9.3c1.3,2.7,2.7,4,4,5.3
			c2.7,1.3,4,2.7,6.7,2.7s5.3,1.3,8,1.3c1.3,0,4,0,5.3,0c2.7,0,4-1.3,5.3-1.3c1.3-1.3,4-2.7,4-4c1.3-1.3,1.3-4,1.3-5.3
			c0-2.7-1.3-4-2.7-6.7C1215.8,921,1213.1,919.6,1210.5,918.3z"/>
		<path d="M1603.6,883.6c-2.7-2.7-5.3-5.3-8-6.7c-8-4-16-4-24,0c-2.7,1.3-5.3,4-8,6.7c-2.7,2.7-4,6.7-4,10.7c-1.3,4-1.3,8-1.3,12
			c0,4,0,8,1.3,12c1.3,4,2.7,6.7,4,10.7c2.7,2.7,5.3,5.3,8,6.7c8,4,16,4,24,0c2.7-1.3,5.3-4,8-6.7c2.7-2.7,4-6.7,4-10.7
			c1.3-4,1.3-8,1.3-12c0-4,0-8-1.3-12C1606.3,890.3,1605,887.6,1603.6,883.6z"/>
		<path d="M630.7,885c-2.7-2.7-5.3-5.3-8-6.7c-4-1.3-9.3-2.7-13.3-2.7h-14.7v58.6l16,2.7c2.7,0,5.3,0,9.3-1.3c2.7-1.3,5.3-2.7,8-5.3
			c2.7-2.7,4-5.3,5.3-9.3c1.3-4,2.7-9.3,2.7-13.3s0-9.3-1.3-13.3C633.4,890.3,632,887.6,630.7,885z"/>
		<path d="M1955.5,883.6c-2.7-2.7-5.3-5.3-8-6.7c-4-1.3-8-2.7-12-2.7c-4,0-8,1.3-12,2.7c-2.7,1.3-5.3,4-8,6.7c-2.7,2.7-4,6.7-4,10.7
			c-1.3,4-1.3,8-1.3,12c0,5.3,1.3,8,1.3,12c1.3,4,2.7,6.7,4,10.7c2.7,2.7,5.3,5.3,8,6.7c4,1.3,8,2.7,12,2.7c4,0,8-1.3,12-2.7
			c2.7-1.3,5.3-4,8-6.7c2.7-2.7,4-6.7,4-10.7c1.3-4,1.3-8,1.3-12c0-4,0-8-1.3-12C1958.2,890.3,1956.8,887.6,1955.5,883.6z"/>
		<path d="M278.8,883.6c-2.7-2.7-5.3-5.3-8-6.7c-8-4-16-4-24,0c-2.7,1.3-5.3,4-8,6.7c-2.7,2.7-4,6.7-4,10.7c-1.3,4-1.3,8-1.3,12
			c0,5.3,1.3,8,1.3,12c1.3,4,2.7,6.7,4,10.7c2.7,2.7,5.3,5.3,8,6.7c8,4,16,4,24,0c2.7-1.3,5.3-4,8-6.7c2.7-2.7,4-6.7,4-10.7
			c1.3-4,1.3-8,1.3-12c0-4,0-8-1.3-12C281.5,890.3,280.2,887.6,278.8,883.6z"/>
		<path d="M0.3,818.3v175.9h2191.1V818.3H0.3z M206.9,954.3h-20l-38.7-62.6v62.6h-18.7h-26.7l-26.7-42.6l-12,12v30.7H42.9v-94.6
			h21.3v38.7l37.3-38.7h25.3L89.6,897l40,57.3v-94.6h20l38.7,62.6v-62.6h18.7V954.3z M302.8,926.3c-2.7,5.3-5.3,10.7-9.3,14.7
			c-4,4-9.3,8-14.7,10.7c-12,5.3-26.7,5.3-38.7,0c-5.3-2.7-10.7-5.3-14.7-10.7c-4-4-6.7-9.3-9.3-16c-2.7-6.7-2.7-13.3-2.7-18.7
			c0-5.3,1.3-12,2.7-18.7c1.3-5.3,5.3-10.7,9.3-16c4-5.3,9.3-8,14.7-10.7c12-5.3,26.7-5.3,38.7,0c5.3,2.7,10.7,6.7,14.7,10.7
			c4,4,6.7,10.7,9.3,16c2.7,6.7,2.7,13.3,2.7,20C305.5,914.3,304.2,921,302.8,926.3z M400.1,954.3h-20l-16-64l-16,64h-21.3
			l-25.3-94.6h21.3l14.7,64l16-64h20l16,65.3l16-65.3h20L400.1,954.3z M565.4,877h-50.6v20H560v17.3h-45.3V937h50.6v17.3h-72h-66.6
			v-94.6h20V937h46.6v-77.3h72V877z M652,925c-1.3,5.3-4,10.7-8,14.7c-4,4-8,8-13.3,10.7c-5.3,2.7-12,4-18.7,2.7h-40v-94.6l40,1.3
			c5.3,0,12,1.3,17.3,2.7c5.3,1.3,9.3,5.3,13.3,9.3s6.7,9.3,9.3,14.7c2.7,6.7,2.7,13.3,2.7,20C654.7,913,653.3,919.6,652,925z
			 M744,954.3h-13.3l-2.7-10.7c-2.7,4-6.7,8-10.7,9.3c-4,1.3-9.3,2.7-13.3,2.7c-6.7,0-13.3-1.3-20-4c-5.3-2.7-10.7-5.3-14.7-10.7
			c-4-4-6.7-9.3-9.3-16c-2.7-6.7-2.7-12-2.7-18.7c0-6.7,0-13.3,1.3-18.7c1.3-5.3,5.3-10.7,9.3-16c4-5.3,9.3-8,14.7-10.7
			c6.7-2.7,13.3-4,20-4c5.3,0,9.3,1.3,13.3,2.7c4,1.3,8,4,12,6.7c4,2.7,6.7,6.7,9.3,10.7c2.7,4,4,9.3,4,14.7h-20
			c-1.3-5.3-4-9.3-6.7-12c-4-2.7-8-4-13.3-4c-4,0-8,1.3-12,2.7c-2.7,1.3-5.3,4-8,6.7c-2.7,2.7-4,6.7-4,10.7c-1.3,4-1.3,8-1.3,12
			c0,4,0,8,1.3,12c1.3,4,2.7,6.7,4,10.7c2.7,2.7,5.3,5.3,8,6.7c4,1.3,8,2.7,12,2.7c5.3,0,12-1.3,16-5.3c4-4,6.7-9.3,6.7-14.7h-20
			v-16h40V954.3z M822.6,877H772v20h45.3v16H772v22.7h50.6v18.7h-72v-94.6h72V877z M921.2,954.3h-66.6v-94.6h21.3V937h45.3V954.3z
			 M1237.1,922.3c0,4-1.3,8-2.7,12c-1.3,4-4,6.7-8,9.3c-4,2.7-8,5.3-12,6.7c-5.3,1.3-10.7,2.7-17.3,2.7c-5.3,0-10.7,0-16-1.3
			c-5.3-1.3-9.3-2.7-13.3-5.3c-4-2.7-6.7-6.7-9.3-10.7c-0.4-0.7-0.6-1.4-0.9-2c-1.2,2.2-2.6,4.3-4.4,6c-4,4-8,8-13.3,10.7
			c-6.7,2.7-13.3,4-20,4h-37.3h-2.7h-18.7l-8-21.3h-34.7l-8,21.3h-16h-5.3h-66.6v-94.6h72V877h-50.6v20h45.3v16h-45.3v22.7h50.6v4.6
			l30.7-80.6h21.3l33.3,87.6v-87.6h41.3c5.3,0,12,1.3,17.3,2.7c5.3,1.3,9.3,5.3,13.3,9.3c4,4,6.7,9.3,9.3,14.7l0,0l0,0
			c0-4,1.3-9.3,2.7-12c2.7-4,5.3-6.7,8-9.3c4-2.7,6.7-4,10.7-5.3c4-1.3,8-1.3,12-1.3c5.3,0,9.3,0,14.7,1.3c4,1.3,8,2.7,12,5.3
			c4,2.7,6.7,5.3,8,9.3c2.7,4,2.7,9.3,2.7,13.3h-20c0-2.7-1.3-5.3-1.3-6.7c-1.3-1.3-2.7-2.7-4-4c-1.3-1.3-4-1.3-5.3-2.7
			c-2.7,0-5.3-1.3-6.7-1.3c-1.3,0-2.7,0-5.3,0c-1.3,0-2.7,1.3-4,1.3c-1.3,1.3-2.7,1.3-2.7,2.7c-1.3,2.7-1.3,6.7,0,9.3
			c1.3,1.3,2.7,2.7,4,2.7c2.7,1.3,5.3,2.7,8,2.7l14.7,4c1.3,0,4,1.3,8,1.3c2.7,1.3,6.7,2.7,9.3,4c2.7,2.7,5.3,5.3,8,8
			C1237.1,913,1238.4,917,1237.1,922.3z M1314.4,954.3h-21.3V877h-28v-17.3h77.3V877h-28V954.3z M1430.4,926.3
			c-1.3,5.3-5.3,10.7-9.3,16c-4,4-9.3,8-14.7,10.7c-12,5.3-26.7,5.3-38.7,0c-5.3-2.7-10.7-5.3-14.7-10.7c-4-4-6.7-9.3-9.3-16
			c-2.7-6.7-2.7-12-2.7-18.7c-1.3-6.7,0-13.3,2.7-20c1.3-5.3,5.3-10.7,9.3-16c4-4,9.3-8,14.7-10.7c12-5.3,26.7-5.3,38.7,0
			c5.3,2.7,10.7,6.7,14.7,10.7c4,4,6.7,9.3,9.3,16s2.7,13.3,2.7,20C1433,914.3,1431.7,921,1430.4,926.3z M1533,934.3
			c-1.3,4-4,6.7-8,9.3c-4,2.7-8,5.3-12,6.7c-5.3,1.3-10.7,2.7-17.3,2.7c-5.3,0-10.7-1.3-14.7-2.7c-5.3-1.3-9.3-2.7-13.3-5.3
			c-4-2.7-6.7-6.7-9.3-10.7c-2.7-5.3-4-9.3-2.7-14.7h20c4,5.3,4,8,5.3,10.7c1.3,2.7,2.7,4,4,5.3c2.7,1.3,4,2.7,6.7,2.7
			c2.7,0,5.3,1.3,8,1.3c1.3,0,4,0,5.3,0c2.7,0,4-1.3,5.3-1.3c1.3-1.3,4-2.7,4-4c1.3-1.3,1.3-4,1.3-5.3c0-2.7-1.3-4-2.7-6.7
			c-1.3-1.3-4-2.7-6.7-4c-2.7-1.3-5.3-2.7-9.3-2.7l-10.7-2.7c-4-1.3-6.7-1.3-10.7-2.7c-2.7-1.3-6.7-2.7-9.3-5.3
			c-2.7-2.7-5.3-4-6.7-8c-1.3-4-2.7-6.7-2.7-10.7c0-4,1.3-9.3,2.7-12c2.7-4,5.3-6.7,8-9.3c4-2.7,6.7-4,10.7-5.3
			c4-1.3,9.3-1.3,13.3-1.3c5.3,0,9.3,0,14.7,1.3c4,1.3,8,2.7,12,5.3c4,2.7,6.7,5.3,8,9.3c2.7,4,2.7,9.3,2.7,13.3h-20
			c0-2.7-1.3-5.3-1.3-6.7c-1.3-1.3-2.7-2.7-4-4c-1.3-1.3-4-1.3-5.3-2.7c-2.7,0-5.3-1.3-6.7-1.3c-1.3,0-2.7,0-5.3,0
			c-1.3,0-2.7,1.3-4,1.3c-1.3,1.3-2.7,2.7-2.7,2.7c-1.3,1.3-1.3,2.7-1.3,5.3c0,1.3,0,2.7,1.3,4c1.3,1.3,2.7,2.7,4,2.7
			c2.7,1.3,5.3,2.7,8,2.7l14.7,4c1.3,0,4,1.3,8,1.3c2.7,1.3,6.7,2.7,9.3,4c2.7,2.7,5.3,5.3,8,8c2.7,4,4,8,4,13.3
			C1535.7,926.3,1534.3,930.3,1533,934.3z M1627.6,926.3c-1.3,5.3-5.3,10.7-9.3,16c-4,4-9.3,8-14.7,10.7c-12,5.3-26.7,5.3-38.7,0
			c-5.3-2.7-10.7-5.3-14.7-10.7c-4-4-6.7-9.3-9.3-16c-2.7-6.7-2.7-12-2.7-18.7c-1.3-6.7,0-13.3,2.7-20c1.3-5.3,5.3-10.7,9.3-16
			c4-4,9.3-8,14.7-10.7c12-5.3,26.7-5.3,38.7,0c5.3,2.7,10.7,6.7,14.7,10.7c4,4,6.7,9.3,9.3,16c2.7,6.7,2.7,13.3,2.7,20
			C1630.3,914.3,1629,921,1627.6,926.3z M1699.6,954.3H1633v-94.6h21.3V937h45.3V954.3z M1772.9,946.3c-17.3,12-41.3,12-58.6,0
			c-8-8-12-17.3-10.7-28v-58.6h20v58.6c0,2.7,0,5.3,0,8c1.3,5.3,4,9.3,8,10.7c2.7,1.3,6.7,1.3,10.7,1.3c5.3,0,10.7-1.3,14.7-5.3
			c2.7-4,5.3-9.3,4-16v-58.6h21.3V917C1783.6,929,1779.6,939.6,1772.9,946.3z M1884.8,954.3h-21.3V877h-28v77.3h-22.7V877h-26.7
			v-17.3h77.3h21.3V954.3z M1979.5,926.3c-1.3,5.3-5.3,10.7-9.3,16c-4,4-9.3,8-14.7,10.7c-12,5.3-26.7,5.3-38.7,0
			c-5.3-2.7-10.7-5.3-14.7-10.7c-4-4-6.7-9.3-9.3-16c-2.7-6.7-2.7-12-2.7-18.7c0-6.7,0-13.3,2.7-20c1.3-5.3,5.3-10.7,9.3-16
			c4-4,9.3-8,14.7-10.7c12-5.3,26.7-5.3,38.7,0c5.3,2.7,10.7,6.7,14.7,10.7c4,4,6.7,9.3,9.3,16c2.7,6.7,2.7,13.3,2.7,20
			C1982.1,914.3,1980.8,921,1979.5,926.3z M2064.8,954.3h-21.3l-38.7-62.6v62.6h-18.7v-94.6h21.3l38.7,62.6v-62.6h18.7V954.3z
			 M2147.4,922.3c0,4-1.3,8-2.7,12c-1.3,4-4,6.7-8,9.3c-4,2.7-8,5.3-12,6.7c-5.3,1.3-10.7,2.7-17.3,2.7c-5.3,0-10.7-1.3-14.7-2.7
			c-5.3-1.3-9.3-2.7-13.3-5.3c-4-2.7-6.7-6.7-9.3-10.7c-2.7-5.3-4-9.3-2.7-14.7h20c2.7,5.3,2.7,8,4,10.7c1.3,2.7,2.7,4,4,5.3
			c2.7,1.3,4,2.7,6.7,2.7s5.3,1.3,8,1.3c1.3,0,4,0,5.3,0c2.7,0,4-1.3,5.3-1.3c1.3-1.3,4-2.7,5.3-4c1.3-1.3,1.3-4,1.3-5.3
			c0-2.7-1.3-4-2.7-6.7c-1.3-1.3-4-2.7-6.7-4c-2.7-1.3-5.3-2.7-9.3-2.7l-10.7-2.7c-4-1.3-6.7-1.3-10.7-2.7c-2.7-1.3-6.7-2.7-9.3-5.3
			c-5.3-4-9.3-10.7-9.3-18.7c0-4,1.3-9.3,2.7-12c2.7-4,5.3-6.7,8-9.3c4-2.7,6.7-4,12-5.3c4-1.3,9.3-1.3,13.3-1.3
			c5.3,0,9.3,0,14.7,1.3c4,1.3,8,2.7,12,5.3c4,2.7,6.7,5.3,8,9.3c2.7,4,2.7,9.3,2.7,13.3h-20c0-2.7-1.3-5.3-1.3-6.7
			c-1.3-1.3-2.7-2.7-4-4c-1.3-1.3-4-1.3-5.3-2.7c-2.7,0-5.3-1.3-6.7-1.3c-1.3,0-2.7,0-5.3,0c-1.3,0-2.7,1.3-4,1.3
			c-1.3,1.3-2.7,2.7-2.7,2.7c-1.3,1.3-1.3,2.7-1.3,5.3c0,1.3,0,2.7,1.3,4c1.3,1.3,2.7,2.7,4,2.7c2.7,1.3,5.3,2.7,8,2.7l14.7,4
			c1.3,0,4,1.3,8,1.3c2.7,1.3,6.7,2.7,9.3,4c2.7,2.7,5.3,5.3,8,8C2147.4,913,2148.7,917,2147.4,922.3z"/>
		<polygon points="1023.9,917 1047.9,917 1035.9,882.3 		"/>
		<path d="M1139.8,885c-2.7-2.7-5.3-5.3-8-6.7c-4-1.3-9.3-2.7-13.3-2.7h-14.7v58.6l16,2.7c2.7,0,5.3,0,9.3-1.3
			c2.7-1.3,5.3-2.7,8-5.3c2.7-2.7,4-5.3,5.3-9.3c1.3-4,2.7-9.3,2.7-13.3s0-9.3-1.3-13.3C1142.5,890.3,1141.1,887.6,1139.8,885z"/>
		<path d="M1406.4,883.6c-2.7-2.7-5.3-5.3-8-6.7c-8-4-16-4-24,0c-2.7,1.3-5.3,4-8,6.7c-2.7,2.7-4,6.7-4,10.7c-1.3,4-1.3,8-1.3,12
			c0,5.3,0,8,1.3,12c1.3,4,2.7,6.7,4,10.7c2.7,2.7,5.3,5.3,8,6.7c8,4,16,4,24,0c2.7-1.3,5.3-4,8-6.7c2.7-2.7,4-6.7,4-10.7
			c1.3-4,1.3-8,1.3-12c0-4,0-8-1.3-12C1409,890.3,1407.7,887.6,1406.4,883.6z"/>
	</g>
</g>
</svg>
